<svg width="52" height="52" viewBox="0 0 52 52" fill="none" xmlns="http://www.w3.org/2000/svg">
<path d="M34.6659 18.2L15.4367 37.4834C15.0034 37.9167 14.4884 38.1334 13.8919 38.1334C13.2953 38.1334 12.7811 37.9167 12.3492 37.4834C11.9159 37.0501 11.6992 36.5351 11.6992 35.9386C11.6992 35.342 11.9159 34.8278 12.3492 34.3959L31.6326 15.1667H15.1659C14.552 15.1667 14.0371 14.9587 13.6211 14.5427C13.2051 14.1267 12.9978 13.6125 12.9992 13C12.9992 12.3862 13.2072 11.8712 13.6232 11.4552C14.0392 11.0392 14.5534 10.8319 15.1659 10.8334H36.8326C37.4464 10.8334 37.9614 11.0414 38.3774 11.4574C38.7934 11.8734 39.0007 12.3876 38.9992 13V34.6667C38.9992 35.2806 38.7912 35.7956 38.3752 36.2116C37.9592 36.6276 37.445 36.8348 36.8326 36.8334C36.2187 36.8334 35.7037 36.6254 35.2877 36.2094C34.8717 35.7934 34.6644 35.2792 34.6659 34.6667V18.2Z" fill="white"/>
</svg>
