<svg width="34" height="35" viewBox="0 0 34 35" fill="none" xmlns="http://www.w3.org/2000/svg">
<path d="M24.9733 20.7356L20.9153 18.9197C20.758 18.8516 20.5862 18.8238 20.4155 18.8389C20.2447 18.8539 20.0804 18.9112 19.9374 19.0057C19.9259 19.0129 19.915 19.021 19.9047 19.0297L17.7734 20.8464C17.726 20.8754 17.6722 20.8922 17.6167 20.8953C17.5613 20.8984 17.5059 20.8879 17.4555 20.8645C16.0599 20.1907 14.6152 18.7573 13.9415 17.378C13.9177 17.328 13.9066 17.2728 13.9093 17.2175C13.912 17.1622 13.9284 17.1084 13.957 17.0609L15.7788 14.8944C15.7874 14.8841 15.7952 14.8729 15.8029 14.8618C15.8971 14.7189 15.9542 14.5549 15.9692 14.3845C15.9842 14.2141 15.9566 14.0426 15.8888 13.8855L14.0695 9.83441C13.9817 9.62923 13.8297 9.45809 13.6363 9.34667C13.4429 9.23526 13.2186 9.18959 12.997 9.21652C11.9156 9.35911 10.923 9.8905 10.2047 10.7114C9.4864 11.5324 9.0915 12.5867 9.09376 13.6775C9.09376 20.3119 14.4906 25.7088 21.125 25.7088C22.2158 25.711 23.2702 25.3161 24.0911 24.5978C24.912 23.8795 25.4434 22.887 25.586 21.8055C25.6128 21.585 25.5676 21.3617 25.4572 21.1689C25.3468 20.9761 25.177 20.8241 24.9733 20.7356ZM24.9063 21.7196C24.7849 22.6354 24.3341 23.4758 23.6382 24.0834C22.9423 24.6911 22.0489 25.0245 21.125 25.0213C14.8705 25.0213 9.78126 19.9321 9.78126 13.6775C9.77806 12.7537 10.1115 11.8603 10.7191 11.1643C11.3268 10.4684 12.1671 10.0176 13.083 9.89629C13.0967 9.89544 13.1105 9.89544 13.1242 9.89629C13.192 9.89687 13.2582 9.91749 13.3143 9.95557C13.3704 9.99365 13.414 10.0475 13.4396 10.1103L15.2538 14.1614C15.2749 14.2109 15.2842 14.2647 15.2807 14.3184C15.2773 14.3721 15.2613 14.4243 15.234 14.4707L13.413 16.6364C13.4044 16.6475 13.3958 16.6579 13.3881 16.6699C13.291 16.8182 13.2339 16.9891 13.2222 17.166C13.2104 17.3429 13.2445 17.5198 13.321 17.6796C14.0678 19.2085 15.6078 20.7373 17.1538 21.4841C17.3148 21.5602 17.4927 21.5932 17.6703 21.5801C17.8478 21.567 18.019 21.5082 18.167 21.4093L18.1988 21.3853L20.3327 19.5703C20.3783 19.5424 20.4299 19.5257 20.4833 19.5217C20.5366 19.5177 20.5901 19.5264 20.6395 19.5471L24.6966 21.3655C24.765 21.394 24.8225 21.4439 24.8602 21.5077C24.898 21.5715 24.9142 21.6458 24.9063 21.7196Z" fill="#94A4D5"/>
<rect x="0.375" y="1.17773" width="33.25" height="33.25" rx="16.625" stroke="#94A4D5" stroke-width="0.75"/>
</svg>
