<svg width="34" height="35" viewBox="0 0 34 35" fill="none" xmlns="http://www.w3.org/2000/svg">
<path d="M16.6666 26.218C16.4319 26.2191 16.2002 26.1651 15.9902 26.0602C15.7803 25.9554 15.5978 25.8027 15.4577 25.6144L11.0372 19.7256C10.3058 18.6942 9.87209 17.4815 9.78353 16.2202C9.69498 14.9588 9.95498 13.6974 10.5351 12.5739C11.1152 11.4504 11.9931 10.508 13.0728 9.84988C14.1525 9.19174 15.3923 8.84317 16.6568 8.84229C17.9212 8.8414 19.1616 9.18824 20.2422 9.84487C21.3228 10.5015 22.202 11.4426 22.7837 12.5653C23.3654 13.688 23.6271 14.9491 23.5403 16.2105C23.4535 17.472 23.0215 18.6853 22.2916 19.7178L17.8763 25.6127C17.7362 25.8013 17.5537 25.9543 17.3436 26.0595C17.1334 26.1646 16.9015 26.2189 16.6666 26.218ZM16.6596 9.73865C15.1833 9.73401 13.7581 10.2785 12.6609 11.2663C11.5607 12.2487 10.8595 13.6008 10.6905 15.066C10.5214 16.5313 10.8962 18.0076 11.7438 19.2147L16.1556 25.0904C16.2148 25.1698 16.2917 25.2343 16.3803 25.2786C16.4689 25.3229 16.5666 25.3458 16.6657 25.3454C16.765 25.3455 16.8629 25.3226 16.9517 25.2783C17.0406 25.234 17.1179 25.1697 17.1775 25.0904L21.5832 19.2086C22.1843 18.3579 22.5538 17.3656 22.6554 16.329C22.7569 15.2924 22.5871 14.2471 22.1625 13.296C21.7379 12.3449 21.0732 11.5206 20.2337 10.9041C19.3941 10.2876 18.4087 9.90012 17.3741 9.7797C17.1369 9.75261 16.8983 9.7389 16.6596 9.73865Z" fill="#94A4D5"/>
<path d="M16.667 17.9791C16.2351 17.9791 15.813 17.851 15.4539 17.6111C15.0948 17.3711 14.8149 17.0301 14.6496 16.6311C14.4843 16.2321 14.4411 15.793 14.5254 15.3694C14.6096 14.9459 14.8176 14.5568 15.123 14.2514C15.4284 13.946 15.8174 13.738 16.241 13.6538C16.6646 13.5695 17.1037 13.6128 17.5027 13.778C17.9017 13.9433 18.2427 14.2232 18.4826 14.5823C18.7226 14.9414 18.8506 15.3636 18.8506 15.7954C18.8506 16.3746 18.6206 16.93 18.2111 17.3395C17.8016 17.749 17.2462 17.9791 16.667 17.9791ZM16.667 14.4853C16.4079 14.4853 16.1546 14.5621 15.9391 14.7061C15.7237 14.85 15.5557 15.0547 15.4566 15.2941C15.3574 15.5335 15.3315 15.7969 15.382 16.051C15.4326 16.3052 15.5574 16.5386 15.7406 16.7219C15.9238 16.9051 16.1573 17.0299 16.4114 17.0804C16.6656 17.131 16.929 17.105 17.1684 17.0059C17.4078 16.9067 17.6124 16.7388 17.7564 16.5233C17.9004 16.3079 17.9772 16.0546 17.9772 15.7954C17.9772 15.448 17.8392 15.1147 17.5935 14.869C17.3477 14.6233 17.0145 14.4853 16.667 14.4853Z" fill="#94A4D5"/>
<rect x="0.375" y="1.17773" width="33.25" height="33.25" rx="16.625" stroke="#94A4D5" stroke-width="0.75"/>
</svg>
