<svg width="62" height="62" viewBox="0 0 62 62" fill="none" xmlns="http://www.w3.org/2000/svg">
<path d="M41.3335 21.7L18.4064 44.6916C17.8898 45.2083 17.2758 45.4666 16.5645 45.4666C15.8533 45.4666 15.2401 45.2083 14.7252 44.6916C14.2085 44.175 13.9502 43.561 13.9502 42.8497C13.9502 42.1384 14.2085 41.5253 14.7252 41.0104L37.7169 18.0833H18.0835C17.3516 18.0833 16.7376 17.8353 16.2416 17.3393C15.7456 16.8433 15.4985 16.2302 15.5002 15.5C15.5002 14.768 15.7482 14.1541 16.2442 13.6581C16.7402 13.1621 17.3533 12.9149 18.0835 12.9166H43.9169C44.6488 12.9166 45.2628 13.1646 45.7588 13.6606C46.2548 14.1566 46.5019 14.7697 46.5002 15.5V41.3333C46.5002 42.0653 46.2522 42.6792 45.7562 43.1752C45.2602 43.6712 44.6471 43.9184 43.9169 43.9166C43.1849 43.9166 42.571 43.6686 42.075 43.1726C41.579 42.6766 41.3318 42.0635 41.3335 41.3333V21.7Z" fill="#444444"/>
</svg>
