<svg width="48" height="48" viewBox="0 0 48 48" fill="none" xmlns="http://www.w3.org/2000/svg">
<path d="M31.9998 16.8L14.2498 34.6C13.8498 35 13.3745 35.2 12.8238 35.2C12.2731 35.2 11.7985 35 11.3998 34.6C10.9998 34.2 10.7998 33.7247 10.7998 33.174C10.7998 32.6233 10.9998 32.1487 11.3998 31.75L29.1998 14H13.9998C13.4331 14 12.9578 13.808 12.5738 13.424C12.1898 13.04 11.9985 12.5653 11.9998 12C11.9998 11.4333 12.1918 10.958 12.5758 10.574C12.9598 10.19 13.4345 9.99867 13.9998 10H33.9998C34.5665 10 35.0418 10.192 35.4258 10.576C35.8098 10.96 36.0011 11.4347 35.9998 12V32C35.9998 32.5667 35.8078 33.042 35.4238 33.426C35.0398 33.81 34.5651 34.0013 33.9998 34C33.4331 34 32.9578 33.808 32.5738 33.424C32.1898 33.04 31.9985 32.5653 31.9998 32V16.8Z" fill="#444444"/>
</svg>
