<svg width="16" height="16" viewBox="0 0 16 16" fill="none" xmlns="http://www.w3.org/2000/svg">
<path d="M11.1457 2.45821C11.2058 2.39456 11.2529 2.31969 11.2841 2.23787C11.3153 2.15605 11.3301 2.06889 11.3276 1.98135C11.3251 1.89382 11.3054 1.80763 11.2696 1.7277C11.2339 1.64778 11.1827 1.57569 11.119 1.51554C11.0554 1.45539 10.9805 1.40837 10.8987 1.37716C10.8169 1.34595 10.7297 1.33116 10.6422 1.33364C10.5546 1.33612 10.4684 1.35581 10.3885 1.3916C10.3086 1.42738 10.2365 1.47856 10.1764 1.54221L4.5097 7.54221C4.39267 7.66599 4.32747 7.82987 4.32747 8.00021C4.32747 8.17055 4.39267 8.33443 4.5097 8.45821L10.1764 14.4589C10.2361 14.5239 10.3082 14.5764 10.3884 14.6134C10.4686 14.6503 10.5554 14.671 10.6436 14.6741C10.7319 14.6773 10.8199 14.6628 10.9026 14.6317C10.9852 14.6005 11.0608 14.5532 11.125 14.4926C11.1892 14.4319 11.2408 14.3592 11.2766 14.2784C11.3125 14.1977 11.3319 14.1107 11.3338 14.0224C11.3357 13.9341 11.3201 13.8463 11.2878 13.7641C11.2555 13.6819 11.2072 13.6069 11.1457 13.5435L5.91103 8.00021L11.1457 2.45821Z" fill="#C3C3C3"/>
</svg>
