<svg width="49" height="48" viewBox="0 0 49 48" fill="none" xmlns="http://www.w3.org/2000/svg">
<path d="M32.4998 16.8L14.7498 34.6C14.3498 35 13.8745 35.2 13.3238 35.2C12.7731 35.2 12.2985 35 11.8998 34.6C11.4998 34.2 11.2998 33.7247 11.2998 33.174C11.2998 32.6233 11.4998 32.1487 11.8998 31.75L29.6998 14H14.4998C13.9331 14 13.4578 13.808 13.0738 13.424C12.6898 13.04 12.4985 12.5653 12.4998 12C12.4998 11.4333 12.6918 10.958 13.0758 10.574C13.4598 10.19 13.9345 9.99867 14.4998 10H34.4998C35.0665 10 35.5418 10.192 35.9258 10.576C36.3098 10.96 36.5011 11.4347 36.4998 12V32C36.4998 32.5667 36.3078 33.042 35.9238 33.426C35.5398 33.81 35.0651 34.0013 34.4998 34C33.9331 34 33.4578 33.808 33.0738 33.424C32.6898 33.04 32.4985 32.5653 32.4998 32V16.8Z" fill="white"/>
</svg>
