<svg width="34" height="35" viewBox="0 0 34 35" fill="none" xmlns="http://www.w3.org/2000/svg">
<path d="M23.1957 11.1904H10.804C10.2515 11.1904 9.7216 11.4099 9.3309 11.8006C8.9402 12.1913 8.7207 12.7212 8.7207 13.2738V22.3321C8.7207 22.8846 8.9402 23.4145 9.3309 23.8052C9.7216 24.1959 10.2515 24.4154 10.804 24.4154H23.1957C23.7482 24.4154 24.2781 24.1959 24.6688 23.8052C25.0595 23.4145 25.279 22.8846 25.279 22.3321V13.2738C25.279 12.7212 25.0595 12.1913 24.6688 11.8006C24.2781 11.4099 23.7482 11.1904 23.1957 11.1904ZM10.804 12.0238H23.1957C23.5111 12.0229 23.8151 12.1421 24.0457 12.3573C24.2764 12.5724 24.4164 12.8674 24.4374 13.1821C22.379 14.2821 20.3124 15.3738 18.2457 16.4738C17.9661 16.649 17.6703 16.7969 17.3624 16.9154C17.1206 16.9631 16.8715 16.9588 16.6315 16.9028C16.3916 16.8468 16.1663 16.7403 15.9707 16.5904C14.7874 15.9654 13.604 15.3321 12.429 14.7071C11.479 14.2071 10.5124 13.6988 9.56237 13.1904C9.5817 12.8744 9.72097 12.5776 9.95175 12.3608C10.1825 12.1439 10.4874 12.0234 10.804 12.0238ZM24.4457 22.3321C24.4457 22.6636 24.314 22.9816 24.0796 23.216C23.8452 23.4504 23.5272 23.5821 23.1957 23.5821H10.804C10.4725 23.5821 10.1546 23.4504 9.92015 23.216C9.68573 22.9816 9.55404 22.6636 9.55404 22.3321V14.1363C11.5207 15.1696 13.479 16.2196 15.4457 17.2613C15.7971 17.4767 16.1753 17.6448 16.5707 17.7613C17.1494 17.8553 17.7424 17.7338 18.2374 17.4196C19.4457 16.7863 20.6457 16.1446 21.854 15.5113C22.7207 15.0446 23.579 14.5946 24.4457 14.1363V22.3321Z" fill="#94A4D5"/>
<rect x="0.375" y="1.17773" width="33.25" height="33.25" rx="16.625" stroke="#94A4D5" stroke-width="0.75"/>
</svg>
