<svg width="24" height="24" viewBox="0 0 24 24" fill="none" xmlns="http://www.w3.org/2000/svg">
<path d="M6.78924 2.26708L8.212 1.83822C9.55168 1.43441 10.983 2.08701 11.5567 3.3632L12.4424 5.33332C12.9314 6.4211 12.6737 7.69949 11.8015 8.51287L10.2544 9.95555C10.2353 9.97337 10.2196 9.99456 10.2081 10.0181C10.0463 10.3488 10.2915 11.2325 11.0625 12.5679C11.9314 14.073 12.6031 14.6686 12.9133 14.5761L14.9442 13.9552C16.0844 13.6066 17.3201 14.0223 18.0177 14.9892L19.2756 16.7325C20.0921 17.8642 19.9453 19.4255 18.932 20.3851L17.8502 21.4096C17.0861 22.1333 16.0161 22.437 14.9858 22.2228C11.9711 21.596 9.27005 19.1683 6.86007 14.9941C4.44772 10.8158 3.69665 7.25988 4.66556 4.33411C4.99464 3.3404 5.787 2.56918 6.78924 2.26708ZM7.1603 3.49808C6.55895 3.67934 6.08354 4.14208 5.88609 4.7383C5.05124 7.25928 5.72749 10.461 7.97353 14.3513C10.2174 18.2378 12.6496 20.4239 15.2475 20.964C15.8657 21.0925 16.5077 20.9103 16.9661 20.4761L18.0479 19.4516C18.5935 18.9349 18.6726 18.0942 18.2329 17.4848L16.9751 15.7415C16.5994 15.2209 15.9341 14.9971 15.3201 15.1848L13.2849 15.807C12.1585 16.1428 11.0998 15.204 9.949 13.2107C8.97478 11.5234 8.63659 10.3045 9.05316 9.45305C9.13367 9.2885 9.24363 9.14008 9.37757 9.0152L10.9246 7.57256C11.3943 7.13459 11.533 6.44622 11.2697 5.86049L10.3841 3.89037C10.0752 3.20319 9.30442 2.85179 8.58306 3.06923L7.1603 3.49808Z" fill="white"/>
</svg>
